<?xml version="1.0" encoding="UTF-8"?>
<svg version="1.1" xmlns="http://www.w3.org/2000/svg" width="625" height="625">
<path d="M0 0 C1.43291942 -0.00258688 2.86583811 -0.00560094 4.29875582 -0.0090034 C8.22315228 -0.01703912 12.1475304 -0.01886106 16.0719341 -0.01960087 C20.31010192 -0.02145749 24.54826037 -0.02900801 28.78642273 -0.03573608 C38.04932471 -0.04929694 47.31222235 -0.05534101 56.57513261 -0.05974674 C62.36580067 -0.06251374 68.15646708 -0.066752 73.94713402 -0.07125092 C89.9983869 -0.08344211 106.04963847 -0.09374077 122.10089588 -0.09712601 C123.12753156 -0.09734557 124.15416724 -0.09756514 125.21191309 -0.09779136 C126.24093141 -0.09800964 127.26994973 -0.09822791 128.33015043 -0.09845281 C130.41514321 -0.09889626 132.500136 -0.09934283 134.58512878 -0.09979248 C135.61934543 -0.10001391 136.65356207 -0.10023534 137.71911862 -0.10046348 C154.45733123 -0.10440704 171.19550018 -0.12184822 187.93369595 -0.145152 C205.14300154 -0.168917 222.35228528 -0.18133025 239.56160754 -0.18249393 C249.2139964 -0.18340795 258.86632843 -0.18909107 268.51870155 -0.20731354 C276.74224329 -0.22278437 284.96571062 -0.22779419 293.18926416 -0.21957543 C297.37795582 -0.2156931 301.56649797 -0.21647876 305.75517082 -0.23063278 C350.59827603 -0.37319491 389.50677337 9.64030699 422.44377136 41.64044189 C447.84351878 66.93662959 462.94663126 102.374265 463.05949521 138.21892959 C463.05871517 139.55395788 463.05783642 140.88898611 463.05686951 142.22401428 C463.05945639 143.6569337 463.06247045 145.0898524 463.06587291 146.52277011 C463.07390863 150.44716656 463.07573056 154.37154468 463.07647038 158.29594839 C463.078327 162.53411621 463.08587751 166.77227465 463.09260559 171.01043701 C463.10616644 180.27333899 463.11221051 189.53623663 463.11661625 198.79914689 C463.11938325 204.58981495 463.12362151 210.38048136 463.12812042 216.1711483 C463.14031162 232.22240119 463.15061028 248.27365275 463.15399551 264.32491016 C463.15421508 265.35154584 463.15443465 266.37818152 463.15466087 267.43592737 C463.15487914 268.46494569 463.15509742 269.49396401 463.15532231 270.55416471 C463.15576577 272.63915749 463.15621233 274.72415028 463.15666199 276.80914307 C463.15688342 277.84335971 463.15710485 278.87757636 463.15733299 279.9431329 C463.16127654 296.68134551 463.17871773 313.41951447 463.20202151 330.15771023 C463.22578651 347.36701582 463.23819975 364.57629957 463.23936343 381.78562182 C463.24027746 391.43801069 463.24596057 401.09034271 463.26418304 410.74271584 C463.27965388 418.96625757 463.2846637 427.1897249 463.27644494 435.41327844 C463.27256261 439.6019701 463.27334826 443.79051225 463.28750229 447.9791851 C463.43006442 492.82229032 453.41656251 531.73078765 421.41642761 564.66778564 C396.12023992 590.06753306 360.68260451 605.17064554 324.83793992 605.28350949 C323.50291163 605.28272945 322.16788339 605.28185071 320.83285522 605.28088379 C319.39993581 605.28347067 317.96701711 605.28648473 316.5340994 605.28988719 C312.60970295 605.29792291 308.68532482 605.29974485 304.76092112 605.30048466 C300.5227533 605.30234128 296.28459486 605.30989179 292.0464325 605.31661987 C282.78353051 605.33018073 273.52063287 605.3362248 264.25772262 605.34063053 C258.46705455 605.34339753 252.67638815 605.34763579 246.88572121 605.3521347 C230.83446832 605.3643259 214.78321676 605.37462456 198.73195934 605.3780098 C197.70532366 605.37822936 196.67868799 605.37844893 195.62094213 605.37867515 C194.59192381 605.37889343 193.56290549 605.3791117 192.5027048 605.3793366 C190.41771201 605.37978005 188.33271923 605.38022662 186.24772644 605.38067627 C185.2135098 605.3808977 184.17929315 605.38111913 183.11373661 605.38134727 C166.375524 605.38529083 149.63735504 605.40273201 132.89915927 605.42603579 C115.68985368 605.44980079 98.48056994 605.46221403 81.27124768 605.46337771 C71.61885882 605.46429174 61.9665268 605.46997486 52.31415367 605.48819733 C44.09061194 605.50366816 35.86714461 605.50867798 27.64359107 605.50045922 C23.45489941 605.49657689 19.26635725 605.49736255 15.0776844 605.51151657 C-29.76542081 605.6540787 -68.67391814 595.64057679 -101.61091614 563.64044189 C-127.01066355 538.3442542 -142.11377604 502.90661879 -142.22663999 467.0619542 C-142.22585995 465.72692591 -142.2249812 464.39189767 -142.22401428 463.05686951 C-142.22660116 461.62395009 -142.22961522 460.19103139 -142.23301768 458.75811368 C-142.2410534 454.83371723 -142.24287534 450.90933911 -142.24361515 446.9849354 C-142.24547177 442.74676758 -142.25302229 438.50860914 -142.25975037 434.27044678 C-142.27331122 425.00754479 -142.27935529 415.74464715 -142.28376102 406.4817369 C-142.28652803 400.69106884 -142.29076628 394.90040243 -142.2952652 389.10973549 C-142.30745639 373.0584826 -142.31775505 357.00723104 -142.32114029 340.95597363 C-142.32135986 339.92933795 -142.32157942 338.90270227 -142.32180564 337.84495642 C-142.32202392 336.8159381 -142.3222422 335.78691978 -142.32246709 334.72671908 C-142.32291055 332.64172629 -142.32335711 330.55673351 -142.32380676 328.47174072 C-142.32402819 327.43752408 -142.32424962 326.40330743 -142.32447776 325.33775089 C-142.32842132 308.59953828 -142.3458625 291.86136932 -142.36916628 275.12317356 C-142.39293129 257.91386797 -142.40534453 240.70458422 -142.40650821 223.49526197 C-142.40742223 213.8428731 -142.41310535 204.19054108 -142.43132782 194.53816795 C-142.44679865 186.31462622 -142.45180847 178.09115889 -142.44358972 169.86760535 C-142.43970738 165.67891369 -142.44049304 161.49037154 -142.45464706 157.30169868 C-142.59720919 112.45859347 -132.58370729 73.55009614 -100.58357239 40.61309814 C-73.83821348 13.75824677 -37.59490825 -0.02722877 0 0 Z " fill="#D23B6D" transform="translate(152.0835723876953,9.85955810546875)"/>
<path d="M0 0 C5.67532492 3.55865785 10.24997884 7.87459416 14.95436132 12.61909962 C15.80916448 13.4692228 16.66396764 14.31934599 17.54467392 15.19523048 C19.89974867 17.54045297 22.24797241 19.8921637 24.5934478 22.24696302 C27.13058299 24.79091097 29.67636633 27.32618002 32.22102392 29.86259937 C37.19741576 34.82567713 42.1656947 39.79679969 47.13107662 44.77089 C51.1661663 48.81276268 55.20418416 52.85168814 59.24429739 56.88853931 C59.81991116 57.46369339 60.39552493 58.03884746 60.98858155 58.63143045 C62.15800711 59.79989682 63.3274394 60.96835647 64.49687834 62.13680947 C75.45171083 73.08309547 86.39734307 84.038544 97.33983357 94.9971658 C106.72962774 104.4003732 116.12727467 113.79567226 125.53068578 123.18526173 C136.45550321 134.09402873 147.37544307 145.00764032 158.28763008 155.92904282 C159.45081221 157.09318058 160.6140006 158.25731209 161.77719533 159.42143726 C162.34948894 159.9941937 162.92178255 160.56695014 163.51141839 161.15706283 C167.54538378 165.19361891 171.5828207 169.22668252 175.62160909 173.25841236 C180.54083697 178.16923151 185.45469398 183.08534966 190.36171846 188.00836396 C192.8655526 190.52008758 195.37173497 193.02934305 197.88446844 195.53216648 C200.60651941 198.24364371 203.3168767 200.96661781 206.02613866 203.69087696 C206.82417327 204.4822194 207.62220787 205.27356184 208.44442534 206.08888435 C209.16802013 206.82030238 209.89161492 207.55172041 210.63713682 208.30530262 C211.57727473 209.24617112 211.57727473 209.24617112 212.53640532 210.20604706 C215.5884297 213.98774953 216.4158298 217.75083381 216.48429906 222.52998829 C216.51265844 223.42459766 216.54101781 224.31920704 216.57023656 225.24092579 C215.2884041 233.3447141 208.95925665 238.7449741 203.39836156 244.26436329 C202.12972768 245.53730244 202.12972768 245.53730244 200.83546484 246.83595753 C199.05217359 248.62128339 197.26511565 250.40285386 195.47453344 252.1808672 C192.73988516 254.89943504 190.02162748 257.63365453 187.30461156 260.36983204 C185.56598947 262.10647199 183.82643713 263.84218124 182.08586156 265.57686329 C181.2763001 266.39249744 180.46673864 267.2081316 179.63264501 268.04848194 C174.23292723 273.38166426 169.62698252 277.5809423 161.67179906 277.59248829 C154.26360652 277.35189746 150.50794713 274.68065409 145.42179906 269.52998829 C144.88168188 268.93959766 144.34156469 268.34920704 143.78508031 267.74092579 C139.60311211 263.78316567 135.65078625 263.78346458 130.11711156 263.90889454 C120.40356806 264.70363901 112.83773782 267.78415585 106.35539281 275.14717579 C100.15835614 283.06146359 98.90592037 290.13738848 100.10929906 300.15498829 C102.20411875 306.25885945 105.28350766 311.29407252 109.48429906 316.15498829 C112.70939856 320.23954702 112.78779939 323.94706737 112.80851781 329.02998829 C110.91445117 337.4950906 104.21556788 343.49167801 98.26554906 349.39717579 C97.41883642 350.24675861 96.57212377 351.09634144 95.69975317 351.9716692 C93.91824071 353.75521347 92.13297284 355.53501369 90.34416234 357.31123829 C87.60737702 360.03189901 84.88703891 362.76827305 82.16789281 365.50655079 C80.43057317 367.24188902 78.69232367 368.97629696 76.95304906 370.70967579 C76.14146337 371.52733418 75.32987768 372.34499256 74.49369848 373.18742847 C73.72940526 373.94226521 72.96511205 374.69710194 72.17765844 375.47481251 C71.51101171 376.13907246 70.84436498 376.80333241 70.15751684 377.48772144 C66.13755154 380.76000769 62.26142073 381.46448479 57.17179906 381.52998829 C56.17277563 381.55834766 55.17375219 381.58670704 54.14445531 381.61592579 C46.73828616 380.49117938 41.55942209 373.89233256 36.51147497 368.82458973 C35.65908622 367.9767321 34.80669748 367.12887447 33.92847878 366.25532418 C31.57265182 363.90994522 29.2213627 361.56018176 26.87194061 359.20839727 C24.33359414 356.66964177 21.78953046 354.13662609 19.2462467 351.60281849 C14.26851938 346.64168171 9.29634016 341.67502056 4.32634369 336.70614024 C0.28664998 332.66739765 -3.75462102 328.63024016 -7.79700625 324.59419155 C-19.26114752 313.14765515 -30.72109441 301.6969431 -42.17568632 290.24085053 C-42.79280081 289.62365613 -43.4099153 289.00646172 -44.04573023 288.37056446 C-44.66359817 287.75261477 -45.2814661 287.13466507 -45.9180573 286.49798963 C-55.93708708 276.47814653 -65.96606167 266.46832332 -75.99958047 256.46299096 C-86.30514972 246.18614412 -96.60324861 235.90186356 -106.89360279 225.60978109 C-112.66974345 219.83297644 -118.44892491 214.05929137 -124.23615038 208.29358959 C-129.16191991 203.38602306 -134.08071224 198.47159385 -138.99059256 193.54812857 C-141.49530023 191.03688767 -144.00311436 188.52897303 -146.51974833 186.0296793 C-149.24867463 183.3193633 -151.96192278 180.59369068 -154.67382777 177.86633778 C-155.47031377 177.0801389 -156.26679977 176.29394002 -157.08742172 175.48391694 C-162.43748891 170.06614689 -165.40996983 165.94074577 -166.39070094 158.21748829 C-165.97266747 149.28046675 -157.77708094 142.59967985 -151.86335719 136.72920704 C-150.99682017 135.85979984 -150.13028315 134.99039265 -149.23748744 134.09463978 C-147.41309303 132.26821297 -145.58494096 130.44553274 -143.75324976 128.62642384 C-140.95503568 125.84431248 -138.17323369 123.04650904 -135.39265406 120.24678516 C-133.61301653 118.46912944 -131.83244893 116.69240423 -130.05085719 114.91670704 C-129.222559 114.08233616 -128.39426081 113.24796528 -127.54086268 112.38831043 C-117.79835598 102.76328056 -117.79835598 102.76328056 -110.51570094 102.65498829 C-105.24975415 102.84871877 -102.0316231 105.10085987 -97.89070094 108.15498829 C-89.24296865 114.19069222 -82.67585655 117.32728781 -71.89070094 116.15498829 C-63.90649505 114.11251702 -57.44404563 110.41248838 -53.16413844 103.27608204 C-49.06910058 95.36741888 -46.6946807 88.13201376 -47.89070094 79.15498829 C-50.12623908 73.65135404 -54.33763176 69.30950155 -58.33991969 65.01436329 C-61.00861902 61.81461295 -62.20067846 59.07572325 -62.32820094 54.90498829 C-62.38814234 53.84537891 -62.38814234 53.84537891 -62.44929469 52.76436329 C-60.68577484 44.52638248 -53.60160003 38.42548235 -47.86335719 32.72920704 C-46.99682017 31.85979984 -46.13028315 30.99039265 -45.23748744 30.09463978 C-43.41309303 28.26821297 -41.58494096 26.44553274 -39.75324976 24.62642384 C-36.95503568 21.84431248 -34.17323369 19.04650904 -31.39265406 16.24678516 C-29.61301653 14.46912944 -27.83244893 12.69240423 -26.05085719 10.91670704 C-24.80840991 9.66515072 -24.80840991 9.66515072 -23.54086268 8.38831043 C-17.03726048 1.96312979 -9.52038953 -4.25495143 0 0 Z " fill="#E2E2E3" transform="translate(286.89070093631744,121.8450117111206)"/>
<path d="M0 0 C3.11682658 1.38508467 5.23309221 2.98532106 7.63572693 5.3952179 C8.34487023 6.1016125 9.05401354 6.80800711 9.78464603 7.53580761 C10.55623775 8.31458924 11.32782946 9.09337088 12.12280273 9.89575195 C12.94827575 10.72092725 13.77374876 11.54610254 14.62423611 12.39628315 C16.91423333 14.68742998 19.19967962 16.98300765 21.48331022 19.28049707 C23.94731092 21.75724121 26.41711403 24.2281868 28.88626099 26.69979858 C33.16406233 30.98337482 37.43829336 35.27048691 41.7102356 39.55990601 C47.8901088 45.76487556 54.07644258 51.96337176 60.26457059 58.16010773 C70.3084722 68.2181464 80.34863114 78.27991165 90.38574219 88.34472656 C90.98653512 88.94717512 91.58732806 89.54962368 92.20632684 90.17032826 C97.08122994 95.05872116 101.95595246 99.94729412 106.8306675 104.83587456 C111.09177985 109.1090917 115.3529643 113.38223694 119.61425781 117.65527344 C120.21431841 118.25699029 120.81437901 118.85870714 121.43262327 119.47865784 C131.43209216 129.50548296 141.43547607 139.52839333 151.44167042 149.54850674 C157.61536427 155.7311706 163.78547133 161.9173735 169.95102715 168.1081531 C174.17419176 172.34814907 178.40086805 176.58462232 182.63034511 180.81832147 C185.07187565 183.26254618 187.51170061 185.70841472 189.94717789 188.15867233 C192.58595062 190.81180355 195.23076002 193.45876527 197.87719727 196.10424805 C198.64878898 196.88302968 199.42038069 197.66181131 200.21535397 198.46419239 C201.27906892 199.5237843 201.27906892 199.5237843 202.36427307 200.6047821 C202.97421395 201.21656657 203.58415483 201.82835104 204.21257877 202.45867443 C207.95445412 205.68536104 210.98450114 206.29383397 215.875 206.3125 C216.88304687 206.32925781 217.89109375 206.34601563 218.9296875 206.36328125 C226.90890091 205.41917585 231.62583014 199.81285211 237.01171875 194.38671875 C237.8617598 193.53954788 238.71180084 192.69237701 239.58760071 191.8195343 C241.37890422 190.03026801 243.16644184 188.2372246 244.95043945 186.44067383 C247.67788961 183.69716696 250.42095819 180.97001733 253.16601562 178.24414062 C254.90721269 176.50096107 256.64747888 174.75685109 258.38671875 173.01171875 C259.20548996 172.19902023 260.02426117 171.38632172 260.86784363 170.54899597 C266.39182585 164.95639013 270.39960794 160.31304096 270.5625 152.125 C270.42236476 146.69309123 269.22119656 144.13631316 265.734375 140.1015625 C259.59039762 132.65683315 257.01858464 124.93366427 257.484375 115.33203125 C258.92678478 106.01100442 264.23724538 99.25536741 271.6875 93.75390625 C279.12266822 89.055293 288.38676378 87.94861905 297 89 C302.01137395 91.4054595 305.89683958 95.52054669 309.94921875 99.29296875 C313.17152429 101.97515451 316.12312989 102.22595399 320.1875 102.375 C321.53908203 102.44847656 321.53908203 102.44847656 322.91796875 102.5234375 C331.02489406 101.14659594 336.95357198 94.49090673 342.515625 88.8828125 C343.68300201 87.71974075 343.68300201 87.71974075 344.8739624 86.53317261 C346.50787866 84.9012872 348.13805529 83.26564972 349.76464844 81.62646484 C352.24608265 79.12894275 354.74314778 76.64786062 357.2421875 74.16796875 C358.83429626 72.57387781 360.42547428 70.97885665 362.015625 69.3828125 C362.75733948 68.64717072 363.49905396 67.91152893 364.26324463 67.15359497 C369.62930502 61.71448197 374.31272922 56.54269171 374.75 48.5625 C374.80671875 47.69753906 374.8634375 46.83257812 374.921875 45.94140625 C374.94765625 45.30074219 374.9734375 44.66007812 375 44 C377.86099653 46.52681834 379.44907185 49.34964903 381.265625 52.6875 C381.57559418 53.25329773 381.88556335 53.81909546 382.20492554 54.40203857 C383.22461722 56.26551826 384.23717391 58.13278135 385.25 60 C385.96602821 61.31055258 386.68267137 62.62076934 387.39990234 63.93066406 C388.87802447 66.63057371 390.35415535 69.33155735 391.82910156 72.03320312 C395.06566352 77.95475052 398.34434737 83.85278045 401.625 89.75 C402.24149414 90.85923828 402.85798828 91.96847656 403.49316406 93.11132812 C408.2219501 101.61469429 412.97493032 110.10439044 417.7331543 118.59130859 C423.88852137 129.57507518 429.99941219 140.58343419 436.10888672 151.59277344 C439.85745682 158.34658758 443.60987232 165.09826595 447.36157227 171.8503418 C450.2308048 177.01450964 453.09969015 182.17886815 455.96626282 187.34451294 C456.62739424 188.53574018 457.28867872 189.72688247 457.95011902 190.91793823 C459.55729913 193.81204467 461.16233454 196.70727953 462.76391602 199.60449219 C465.43893936 204.43591556 468.12660951 209.25229601 470.94140625 214.00390625 C471.37018066 214.73520752 471.79895508 215.46650879 472.24072266 216.2199707 C473.00209245 217.5114415 473.77528711 218.7960672 474.56396484 220.07104492 C477.0199502 224.25538326 477.6833414 227.19636305 477 232 C475.64773652 235.50968577 473.92920945 238.7661929 472.125 242.0625 C471.62395752 242.9920752 471.12291504 243.92165039 470.60668945 244.87939453 C452.10070306 278.58766497 422.41893482 301.73118046 386.1484375 313.89453125 C374.47121162 317.19856252 363.20416803 318.46166716 351.10375977 318.51513672 C349.57758864 318.53235436 348.05142966 318.55067833 346.52528381 318.57000732 C342.43075574 318.61731857 338.33634481 318.64532489 334.24160504 318.66642904 C331.6770375 318.6797622 329.11250254 318.69601584 326.54795647 318.71295547 C318.50373039 318.764513 310.45958775 318.80273154 302.4152227 318.8233813 C293.16245837 318.84748864 283.9115348 318.9179999 274.6593948 319.02738369 C267.4768391 319.10935636 260.29480951 319.14902346 253.11179394 319.15698445 C248.83303132 319.16272052 244.55618458 319.18634949 240.27792549 319.25472641 C236.26069055 319.31786839 232.24667723 319.3283627 228.22908592 319.29906464 C226.76006524 319.29730733 225.29087932 319.31421378 223.82233429 319.35163498 C212.76531074 319.61734571 212.76531074 319.61734571 208.4083643 315.62559032 C206.35196213 312.83408677 204.65411811 310.0432806 203 307 C201.97824563 305.46010986 200.9442693 303.92813995 199.88989258 302.41040039 C198.88874767 300.89125577 197.89037647 299.37028024 196.89453125 297.84765625 C196.34145798 297.00685516 195.7883847 296.16605408 195.21855164 295.29977417 C194.03221581 293.49553687 192.84708878 291.69050425 191.66308594 289.88473511 C189.76362178 286.9879583 187.86072996 284.09345837 185.95703125 281.19946289 C181.9684792 275.13486201 177.98392582 269.06764058 174 263 C169.16986788 255.64372556 164.33766852 248.28882105 159.5 240.9375 C158.90377838 240.0313797 158.30755676 239.1252594 157.69326782 238.19168091 C148.12868261 223.66425872 138.43761946 209.2258708 128.6875 194.82247925 C118.91012451 180.37520191 109.2740376 165.84026671 99.69958496 151.25787354 C90.48441872 137.22743731 81.15635903 123.27791799 71.75 109.375 C62.94625997 96.3599328 54.21083061 83.31224166 45.6484375 70.13671875 C39.82368127 61.17710178 33.94622689 52.25211044 28.06860352 43.32711792 C26.79464793 41.39212085 25.52134934 39.45669104 24.2487793 37.52078247 C17.70033985 27.55917679 11.14532325 17.61135689 4.27981567 7.86410522 C2.4555123 5.25113858 1.01413878 3.04241635 0 0 Z " fill="#AE3B5E" transform="translate(128,296)"/>
<path d="M0 0 C5.01972041 2.63701578 8.71343995 6.37901094 12.66342163 10.3894043 C13.46117004 11.18335602 14.25891846 11.97730774 15.08084106 12.7953186 C17.69976813 15.40687116 20.30407427 18.03248207 22.90805054 20.65893555 C24.72955533 22.48282601 26.55180167 24.30597616 28.37475586 26.12841797 C32.18522323 29.94200773 35.98913276 33.76195399 39.78744507 37.58764648 C44.17519941 42.00691321 48.573382 46.41557694 52.977651 50.81838131 C57.22413656 55.06364558 61.46476025 59.31470074 65.70244217 63.5687561 C67.50261001 65.37529203 69.30399505 67.1806159 71.10660934 68.98471069 C73.62020943 71.50263939 76.12711831 74.02703864 78.63217163 76.5534668 C79.37917328 77.29956207 80.12617493 78.04565735 80.89581299 78.81436157 C81.57696167 79.50404022 82.25811035 80.19371887 82.9598999 80.90429688 C83.55236197 81.50011063 84.14482403 82.09592438 84.75523949 82.70979309 C88.16272235 86.70000316 88.64359454 90.06317092 88.50961304 95.1628418 C87.83498525 101.39260773 84.92084755 105.49233291 80.25961304 109.47143555 C77.06130848 111.43434349 74.55508526 111.76840307 70.82211304 111.78393555 C69.8952771 111.80069336 68.96844116 111.81745117 68.01351929 111.8347168 C61.17961406 110.93322292 56.74306292 105.25098129 52.10458374 100.60693359 C51.29751984 99.80658691 50.49045593 99.00624023 49.65893555 98.18164062 C46.99575824 95.53744387 44.34017272 92.88578174 41.68539429 90.2331543 C39.83659967 88.39078627 37.98765448 86.54856934 36.13856506 84.70649719 C32.26535281 80.8460585 28.39704799 76.9807466 24.53085327 73.11328125 C20.06662751 68.64785317 15.59135845 64.19370973 11.11078006 59.74469537 C6.7936538 55.45689755 2.48766971 51.15807323 -1.81421852 46.85499001 C-3.64305119 45.02851885 -5.4751311 43.20529318 -7.31049156 41.3853817 C-9.87443217 38.84101418 -12.42541518 36.28431298 -14.97354126 33.72412109 C-16.11513954 32.59938133 -16.11513954 32.59938133 -17.27980042 31.45191956 C-22.29643247 26.37463826 -24.42616926 22.77072143 -25.11538696 15.53393555 C-24.9823591 10.89569746 -23.41900095 8.23597412 -20.74038696 4.47143555 C-18.24038696 2.15893555 -18.24038696 2.15893555 -15.74038696 0.47143555 C-15.14226196 0.05893555 -14.54413696 -0.35356445 -13.92788696 -0.77856445 C-9.06245236 -2.44671346 -4.57780121 -2.1908067 0 0 Z " fill="#D23C6E" transform="translate(256.7403869628906,281.528564453125)"/>
<path d="M0 0 C4.04062216 2.31172748 7.13004313 5.7427629 10.37487221 9.03635979 C11.18222816 9.83991905 11.98958412 10.64347832 12.82140541 11.47138786 C15.47824041 14.12083421 18.12043486 16.78436943 20.76232338 19.4487133 C22.60767797 21.29645295 24.45377342 23.14345296 26.30057716 24.98974419 C30.16471847 28.85575443 34.02105913 32.72940762 37.8724308 36.60813713 C42.32209078 41.08928804 46.78215835 45.55985909 51.24832231 50.02455753 C55.55193652 54.32695039 59.84969105 58.6351379 64.14450073 62.94631958 C65.96978776 64.77797594 67.79629304 66.6084191 69.62402725 68.43763351 C72.17365839 70.99159333 74.71659947 73.55202569 77.25768471 76.11448479 C78.01560814 76.87150185 78.77353157 77.62851891 79.55442238 78.40847588 C80.24543037 79.10801384 80.93643837 79.8075518 81.648386 80.52828789 C82.24952123 81.1327748 82.85065645 81.73726171 83.4700079 82.36006641 C87.26573669 86.79706991 87.41879596 90.77912829 87.31310463 96.4487133 C86.86465738 100.21676395 85.47350712 102.31486081 82.99279213 105.14011955 C82.06466713 106.25386955 82.06466713 106.25386955 81.11779213 107.39011955 C76.66732099 111.05521343 71.88219066 111.38003483 66.33654213 111.60105705 C59.61299978 110.27876039 54.55736947 104.00096858 49.92370033 99.3615551 C49.13760384 98.58217583 48.35150734 97.80279655 47.54158974 96.99979973 C44.95360481 94.43075948 42.37317869 91.85429075 39.79357338 89.2768383 C37.99344299 87.48313678 36.19316307 85.68958529 34.39274025 83.89617729 C30.6242597 80.13965962 26.85988243 76.379087 23.09801674 72.61594963 C18.75818869 68.27491932 14.40731972 63.9451782 10.05114108 59.6205613 C5.84880534 55.44758398 1.65762208 51.2635297 -2.52946472 47.07524872 C-4.30722997 45.29984201 -6.08823568 43.52767388 -7.87253952 41.75883865 C-10.36673872 39.28425116 -12.84792641 36.7972915 -15.32629967 34.3068676 C-16.06349739 33.58090889 -16.80069511 32.85495018 -17.56023216 32.10699272 C-22.75449613 26.84836452 -25.55498887 22.70134418 -26.50720787 15.20261955 C-26.25903533 9.11648342 -22.6951984 4.70753933 -18.38220787 0.70261955 C-12.50695727 -3.1626769 -6.22610684 -2.75016033 0 0 Z " fill="#D3406F" transform="translate(306.0072078704834,233.8598804473877)"/>
</svg>
